<svg width="161" height="77" viewBox="0 0 161 77" fill="none" xmlns="http://www.w3.org/2000/svg">
<path d="M34.8977 62V35.8182H42.1591V62H34.8977ZM38.5455 32.4432C37.4659 32.4432 36.5398 32.0852 35.767 31.3693C35.0057 30.642 34.625 29.7727 34.625 28.7614C34.625 27.7614 35.0057 26.9034 35.767 26.1875C36.5398 25.4602 37.4659 25.0966 38.5455 25.0966C39.625 25.0966 40.5455 25.4602 41.3068 26.1875C42.0795 26.9034 42.4659 27.7614 42.4659 28.7614C42.4659 29.7727 42.0795 30.642 41.3068 31.3693C40.5455 32.0852 39.625 32.4432 38.5455 32.4432ZM48.3381 73.0455V32.5455H56.392V37.4929H56.7564C57.1143 36.7003 57.6321 35.8949 58.3097 35.0767C59 34.2457 59.8949 33.5554 60.9943 33.0057C62.1065 32.4432 63.4872 32.1619 65.1364 32.1619C67.2841 32.1619 69.2656 32.7244 71.081 33.8494C72.8963 34.9616 74.3473 36.6428 75.4339 38.8928C76.5206 41.13 77.0639 43.9361 77.0639 47.3111C77.0639 50.5966 76.5334 53.3707 75.4723 55.6335C74.424 57.8835 72.9922 59.5902 71.1768 60.7536C69.3743 61.9041 67.3544 62.4794 65.1172 62.4794C63.532 62.4794 62.1832 62.2173 61.071 61.6932C59.9716 61.169 59.0703 60.5107 58.3672 59.718C57.6641 58.9126 57.1271 58.1009 56.7564 57.2827H56.5071V73.0455H48.3381ZM56.3345 47.2727C56.3345 49.0241 56.5774 50.5518 57.0632 51.8558C57.549 53.1598 58.2521 54.1761 59.1726 54.9048C60.093 55.6207 61.2116 55.9787 62.5284 55.9787C63.858 55.9787 64.983 55.6143 65.9034 54.8857C66.8239 54.1442 67.5206 53.1214 67.9936 51.8175C68.4794 50.5007 68.7223 48.9858 68.7223 47.2727C68.7223 45.5724 68.4858 44.0767 68.0128 42.7855C67.5398 41.4943 66.843 40.4844 65.9226 39.7557C65.0021 39.027 63.8707 38.6626 62.5284 38.6626C61.1989 38.6626 60.0739 39.0142 59.1534 39.7173C58.2457 40.4205 57.549 41.4176 57.0632 42.7088C56.5774 44 56.3345 45.5213 56.3345 47.2727ZM82.6634 62V22.7273H90.8324V37.4929H91.0817C91.4396 36.7003 91.9574 35.8949 92.6349 35.0767C93.3253 34.2457 94.2202 33.5554 95.3196 33.0057C96.4318 32.4432 97.8125 32.1619 99.4616 32.1619C101.609 32.1619 103.591 32.7244 105.406 33.8494C107.222 34.9616 108.673 36.6428 109.759 38.8928C110.846 41.13 111.389 43.9361 111.389 47.3111C111.389 50.5966 110.859 53.3707 109.798 55.6335C108.749 57.8835 107.317 59.5902 105.502 60.7536C103.7 61.9041 101.68 62.4794 99.4425 62.4794C97.8572 62.4794 96.5085 62.2173 95.3963 61.6932C94.2969 61.169 93.3956 60.5107 92.6925 59.718C91.9893 58.9126 91.4524 58.1009 91.0817 57.2827H90.7173V62H82.6634ZM90.6598 47.2727C90.6598 49.0241 90.9027 50.5518 91.3885 51.8558C91.8743 53.1598 92.5774 54.1761 93.4979 54.9048C94.4183 55.6207 95.5369 55.9787 96.8537 55.9787C98.1832 55.9787 99.3082 55.6143 100.229 54.8857C101.149 54.1442 101.846 53.1214 102.319 51.8175C102.805 50.5007 103.048 48.9858 103.048 47.2727C103.048 45.5724 102.811 44.0767 102.338 42.7855C101.865 41.4943 101.168 40.4844 100.248 39.7557C99.3274 39.027 98.196 38.6626 96.8537 38.6626C95.5241 38.6626 94.3991 39.0142 93.4787 39.7173C92.571 40.4205 91.8743 41.4176 91.3885 42.7088C90.9027 44 90.6598 45.5213 90.6598 47.2727ZM125.009 22.7273V62H116.84V22.7273H125.009ZM144.976 62.5753C141.946 62.5753 139.338 61.9616 137.152 60.7344C134.979 59.4943 133.304 57.7429 132.128 55.4801C130.952 53.2045 130.364 50.5135 130.364 47.407C130.364 44.3771 130.952 41.718 132.128 39.4297C133.304 37.1413 134.96 35.358 137.095 34.0795C139.243 32.8011 141.761 32.1619 144.65 32.1619C146.593 32.1619 148.402 32.4751 150.077 33.1016C151.765 33.7152 153.235 34.642 154.488 35.8821C155.753 37.1222 156.738 38.6818 157.441 40.5611C158.144 42.4276 158.495 44.6136 158.495 47.1193V49.3629H133.624V44.3004H150.806C150.806 43.1243 150.55 42.0824 150.039 41.1747C149.527 40.267 148.818 39.5575 147.91 39.0462C147.015 38.522 145.973 38.2599 144.784 38.2599C143.544 38.2599 142.445 38.5476 141.486 39.1229C140.54 39.6854 139.799 40.446 139.262 41.4048C138.725 42.3509 138.45 43.4055 138.437 44.5689V49.3821C138.437 50.8395 138.706 52.0987 139.243 53.1598C139.792 54.2209 140.566 55.0391 141.563 55.6143C142.56 56.1896 143.743 56.4773 145.11 56.4773C146.018 56.4773 146.849 56.3494 147.603 56.0938C148.358 55.8381 149.003 55.4545 149.54 54.9432C150.077 54.4318 150.486 53.8054 150.767 53.0639L158.323 53.5625C157.939 55.3778 157.153 56.9631 155.964 58.3182C154.788 59.6605 153.267 60.7088 151.4 61.4631C149.547 62.2045 147.405 62.5753 144.976 62.5753Z" fill="white"/>
<path d="M2.54545 22.5227V15.4545H39.6818V22.5227H25.2955V62H16.9318V22.5227H2.54545Z" fill="#00C8FF"/>
<rect x="10" y="35" width="22" height="4" fill="#00C8FF"/>
<rect x="10" y="41" width="22" height="4" fill="#00C8FF"/>
</svg>
