<svg width="120" height="77" viewBox="0 0 120 77" fill="none" xmlns="http://www.w3.org/2000/svg">
<path d="M35.1733 62V42.3636H40.6193V62H35.1733ZM37.9091 39.8324C37.0994 39.8324 36.4048 39.5639 35.8253 39.027C35.2543 38.4815 34.9688 37.8295 34.9688 37.071C34.9688 36.321 35.2543 35.6776 35.8253 35.1406C36.4048 34.5952 37.0994 34.3224 37.9091 34.3224C38.7188 34.3224 39.4091 34.5952 39.9801 35.1406C40.5597 35.6776 40.8494 36.321 40.8494 37.071C40.8494 37.8295 40.5597 38.4815 39.9801 39.027C39.4091 39.5639 38.7188 39.8324 37.9091 39.8324ZM44.9819 69.3636V42.3636H50.3512V45.6619H50.5941C50.8327 45.1335 51.1779 44.5966 51.6296 44.0511C52.0898 43.4972 52.6864 43.0369 53.4194 42.6705C54.1609 42.2955 55.0813 42.108 56.1808 42.108C57.6126 42.108 58.9336 42.483 60.1438 43.233C61.354 43.9744 62.3214 45.0952 63.0458 46.5952C63.7702 48.0866 64.1325 49.9574 64.1325 52.2074C64.1325 54.3977 63.7788 56.2472 63.0714 57.7557C62.3725 59.2557 61.418 60.3935 60.2077 61.169C59.006 61.9361 57.6594 62.3196 56.168 62.3196C55.1112 62.3196 54.212 62.1449 53.4705 61.7955C52.7376 61.446 52.1367 61.0071 51.668 60.4787C51.1992 59.9418 50.8413 59.4006 50.5941 58.8551H50.4279V69.3636H44.9819ZM50.3129 52.1818C50.3129 53.3494 50.4748 54.3679 50.7987 55.2372C51.1225 56.1065 51.5913 56.7841 52.2049 57.2699C52.8185 57.7472 53.5643 57.9858 54.4421 57.9858C55.3285 57.9858 56.0785 57.7429 56.6921 57.2571C57.3058 56.7628 57.7702 56.081 58.0856 55.2116C58.4094 54.3338 58.5714 53.3239 58.5714 52.1818C58.5714 51.0483 58.4137 50.0511 58.0984 49.1903C57.783 48.3295 57.3185 47.6562 56.7049 47.1705C56.0913 46.6847 55.337 46.4418 54.4421 46.4418C53.5558 46.4418 52.8058 46.6761 52.1921 47.1449C51.587 47.6136 51.1225 48.2784 50.7987 49.1392C50.4748 50 50.3129 51.0142 50.3129 52.1818ZM67.8654 62V35.8182H73.3114V45.6619H73.4776C73.7163 45.1335 74.0614 44.5966 74.5131 44.0511C74.9734 43.4972 75.57 43.0369 76.3029 42.6705C77.0444 42.2955 77.9648 42.108 79.0643 42.108C80.4961 42.108 81.8171 42.483 83.0273 43.233C84.2376 43.9744 85.2049 45.0952 85.9293 46.5952C86.6538 48.0866 87.016 49.9574 87.016 52.2074C87.016 54.3977 86.6623 56.2472 85.9549 57.7557C85.256 59.2557 84.3015 60.3935 83.0913 61.169C81.8896 61.9361 80.543 62.3196 79.0515 62.3196C77.9947 62.3196 77.0955 62.1449 76.354 61.7955C75.6211 61.446 75.0202 61.0071 74.5515 60.4787C74.0827 59.9418 73.7248 59.4006 73.4776 58.8551H73.2347V62H67.8654ZM73.1964 52.1818C73.1964 53.3494 73.3583 54.3679 73.6822 55.2372C74.006 56.1065 74.4748 56.7841 75.0884 57.2699C75.7021 57.7472 76.4478 57.9858 77.3256 57.9858C78.212 57.9858 78.962 57.7429 79.5756 57.2571C80.1893 56.7628 80.6538 56.081 80.9691 55.2116C81.293 54.3338 81.4549 53.3239 81.4549 52.1818C81.4549 51.0483 81.2972 50.0511 80.9819 49.1903C80.6665 48.3295 80.2021 47.6562 79.5884 47.1705C78.9748 46.6847 78.2205 46.4418 77.3256 46.4418C76.4393 46.4418 75.6893 46.6761 75.0756 47.1449C74.4705 47.6136 74.006 48.2784 73.6822 49.1392C73.3583 50 73.1964 51.0142 73.1964 52.1818ZM96.0959 35.8182V62H90.6499V35.8182H96.0959ZM109.407 62.3835C107.387 62.3835 105.649 61.9744 104.191 61.1562C102.743 60.3295 101.626 59.1619 100.842 57.6534C100.058 56.1364 99.6658 54.3423 99.6658 52.2713C99.6658 50.2514 100.058 48.4787 100.842 46.9531C101.626 45.4276 102.73 44.2386 104.153 43.3864C105.585 42.5341 107.264 42.108 109.19 42.108C110.485 42.108 111.691 42.3168 112.808 42.7344C113.933 43.1435 114.913 43.7614 115.748 44.5881C116.592 45.4148 117.248 46.4545 117.717 47.7074C118.186 48.9517 118.42 50.4091 118.42 52.0795V53.5753H101.839V50.2003H113.294C113.294 49.4162 113.123 48.7216 112.782 48.1165C112.441 47.5114 111.968 47.0384 111.363 46.6974C110.767 46.348 110.072 46.1733 109.279 46.1733C108.453 46.1733 107.72 46.3651 107.081 46.7486C106.45 47.1236 105.956 47.6307 105.598 48.2699C105.24 48.9006 105.056 49.6037 105.048 50.3793V53.5881C105.048 54.5597 105.227 55.3991 105.585 56.1065C105.951 56.8139 106.467 57.3594 107.132 57.7429C107.797 58.1264 108.585 58.3182 109.497 58.3182C110.102 58.3182 110.656 58.233 111.159 58.0625C111.662 57.892 112.092 57.6364 112.45 57.2955C112.808 56.9545 113.081 56.5369 113.268 56.0426L118.305 56.375C118.049 57.5852 117.525 58.642 116.733 59.5455C115.949 60.4403 114.934 61.1392 113.69 61.642C112.454 62.1364 111.027 62.3835 109.407 62.3835Z" fill="white"/>
<path d="M2.54545 22.5227V15.4545H39.6818V22.5227H25.2955V62H16.9318V22.5227H2.54545Z" fill="#00C8FF"/>
<rect x="10" y="35" width="22" height="4" fill="#00C8FF"/>
<rect x="10" y="41" width="22" height="4" fill="#00C8FF"/>
</svg>
